<svg width="48" height="24" viewBox="0 0 48 24" fill="none" xmlns="http://www.w3.org/2000/svg">
<path d="M30.726 0.811215C31.0222 1.61708 31.4921 2.37786 32.135 3.03159C34.4484 5.38389 38.1218 5.46257 40.3397 3.20738C40.9805 2.5558 41.4293 1.78046 41.6884 0.950846L48 1.03118C47.6954 3.5229 46.6214 5.90691 44.7701 7.78951C42.2118 10.3908 38.7121 11.4826 35.2922 11.0868C35.6814 14.5643 34.6078 18.123 32.0496 20.7243C30.2148 22.5901 27.8955 23.6792 25.4688 24L25.389 17.5171C26.209 17.2542 26.9756 16.7967 27.6192 16.1422C29.8371 13.8869 29.7597 10.1516 27.4464 7.79919C26.8004 7.14239 26.0483 6.66295 25.2516 6.36197L25.1826 0.740652L30.726 0.811215Z" fill="#29C9D1"/>
<path d="M15.9417 3.28437C17.7932 1.40166 20.1381 0.309614 22.5887 0L22.6678 6.41705C21.8517 6.6804 21.0889 7.13692 20.448 7.78863C18.2303 10.0439 18.3076 13.7793 20.6209 16.1317C21.2639 16.7855 22.0123 17.2634 22.805 17.5647L22.8744 23.2018L17.3458 23.1314C17.0498 22.3212 16.5782 21.5563 15.9322 20.8993C13.6188 18.547 9.94544 18.4683 7.72754 20.7235C7.08378 21.3781 6.63357 22.1578 6.37514 22.9919L0 22.9107C0.315509 20.4433 1.38655 18.0849 3.22127 16.2192C5.77949 13.6179 9.27922 12.5261 12.6991 12.9218C12.3099 9.44435 13.3836 5.88569 15.9417 3.28437Z" fill="#29C9D1"/>
</svg>
