<svg width="156" height="31" viewBox="0 0 156 31" fill="none" xmlns="http://www.w3.org/2000/svg">
<path d="M30.726 4.81122C31.0222 5.61708 31.4921 6.37786 32.135 7.03159C34.4484 9.38389 38.1218 9.46257 40.3397 7.20738C40.9805 6.5558 41.4293 5.78046 41.6884 4.95085L48 5.03118C47.6954 7.5229 46.6214 9.90691 44.7701 11.7895C42.2118 14.3908 38.7121 15.4826 35.2922 15.0868C35.6814 18.5643 34.6078 22.123 32.0496 24.7243C30.2148 26.5901 27.8955 27.6792 25.4688 28L25.389 21.5171C26.209 21.2542 26.9756 20.7967 27.6192 20.1422C29.8371 17.8869 29.7597 14.1516 27.4464 11.7992C26.8004 11.1424 26.0483 10.663 25.2516 10.362L25.1826 4.74065L30.726 4.81122Z" fill="#29C9D1"/>
<path d="M15.9417 7.28437C17.7932 5.40166 20.1381 4.30961 22.5887 4L22.6678 10.417C21.8517 10.6804 21.0889 11.1369 20.448 11.7886C18.2303 14.0439 18.3076 17.7793 20.6209 20.1317C21.2639 20.7855 22.0123 21.2634 22.805 21.5647L22.8744 27.2018L17.3458 27.1314C17.0498 26.3212 16.5782 25.5563 15.9322 24.8993C13.6188 22.547 9.94544 22.4683 7.72754 24.7235C7.08378 25.3781 6.63357 26.1578 6.37514 26.9919L0 26.9107C0.315509 24.4433 1.38655 22.0849 3.22127 20.2192C5.77949 17.6179 9.27922 16.5261 12.6991 16.9218C12.3099 13.4444 13.3836 9.88569 15.9417 7.28437Z" fill="#29C9D1"/>
<path d="M62.48 24.336C61.536 24.336 60.648 24.104 59.816 23.64C59 23.16 58.344 22.464 57.848 21.552C57.352 20.64 57.104 19.536 57.104 18.24V17.856C57.104 16.56 57.352 15.456 57.848 14.544C58.344 13.632 59 12.944 59.816 12.48C60.632 12 61.52 11.76 62.48 11.76C63.2 11.76 63.8 11.848 64.28 12.024C64.776 12.184 65.176 12.392 65.48 12.648C65.784 12.904 66.016 13.176 66.176 13.464H66.608V7.2H69.632V24H66.656V22.56H66.224C65.952 23.008 65.528 23.416 64.952 23.784C64.392 24.152 63.568 24.336 62.48 24.336ZM63.392 21.696C64.32 21.696 65.096 21.4 65.72 20.808C66.344 20.2 66.656 19.32 66.656 18.168V17.928C66.656 16.776 66.344 15.904 65.72 15.312C65.112 14.704 64.336 14.4 63.392 14.4C62.464 14.4 61.688 14.704 61.064 15.312C60.44 15.904 60.128 16.776 60.128 17.928V18.168C60.128 19.32 60.44 20.2 61.064 20.808C61.688 21.4 62.464 21.696 63.392 21.696ZM79.8487 24.336C78.6647 24.336 77.6007 24.096 76.6567 23.616C75.7127 23.136 74.9687 22.44 74.4247 21.528C73.8807 20.616 73.6087 19.52 73.6087 18.24V17.856C73.6087 16.576 73.8807 15.48 74.4247 14.568C74.9687 13.656 75.7127 12.96 76.6567 12.48C77.6007 12 78.6647 11.76 79.8487 11.76C81.0327 11.76 82.0967 12 83.0407 12.48C83.9847 12.96 84.7287 13.656 85.2727 14.568C85.8167 15.48 86.0887 16.576 86.0887 17.856V18.24C86.0887 19.52 85.8167 20.616 85.2727 21.528C84.7287 22.44 83.9847 23.136 83.0407 23.616C82.0967 24.096 81.0327 24.336 79.8487 24.336ZM79.8487 21.648C80.7767 21.648 81.5447 21.352 82.1527 20.76C82.7607 20.152 83.0647 19.288 83.0647 18.168V17.928C83.0647 16.808 82.7607 15.952 82.1527 15.36C81.5607 14.752 80.7927 14.448 79.8487 14.448C78.9207 14.448 78.1527 14.752 77.5447 15.36C76.9367 15.952 76.6327 16.808 76.6327 17.928V18.168C76.6327 19.288 76.9367 20.152 77.5447 20.76C78.1527 21.352 78.9207 21.648 79.8487 21.648ZM94.2416 24C93.4576 24 92.8176 23.76 92.3216 23.28C91.8416 22.784 91.6016 22.128 91.6016 21.312V14.592H88.6256V12.096H91.6016V8.4H94.6256V12.096H97.8896V14.592H94.6256V20.784C94.6256 21.264 94.8496 21.504 95.2976 21.504H97.6016V24H94.2416ZM101.827 24V12.096H104.803V13.44H105.235C105.411 12.96 105.699 12.608 106.099 12.384C106.515 12.16 106.995 12.048 107.539 12.048H108.979V14.736H107.491C106.723 14.736 106.091 14.944 105.595 15.36C105.099 15.76 104.851 16.384 104.851 17.232V24H101.827ZM115.957 24.336C115.109 24.336 114.349 24.192 113.677 23.904C113.005 23.6 112.469 23.168 112.069 22.608C111.685 22.032 111.493 21.336 111.493 20.52C111.493 19.704 111.685 19.024 112.069 18.48C112.469 17.92 113.013 17.504 113.701 17.232C114.405 16.944 115.205 16.8 116.101 16.8H119.365V16.128C119.365 15.568 119.189 15.112 118.837 14.76C118.485 14.392 117.925 14.208 117.157 14.208C116.405 14.208 115.845 14.384 115.477 14.736C115.109 15.072 114.869 15.512 114.757 16.056L111.973 15.12C112.165 14.512 112.469 13.96 112.885 13.464C113.317 12.952 113.885 12.544 114.589 12.24C115.309 11.92 116.181 11.76 117.205 11.76C118.773 11.76 120.013 12.152 120.925 12.936C121.837 13.72 122.293 14.856 122.293 16.344V20.784C122.293 21.264 122.517 21.504 122.965 21.504H123.925V24H121.909C121.317 24 120.829 23.856 120.445 23.568C120.061 23.28 119.869 22.896 119.869 22.416V22.392H119.413C119.349 22.584 119.205 22.84 118.981 23.16C118.757 23.464 118.405 23.736 117.925 23.976C117.445 24.216 116.789 24.336 115.957 24.336ZM116.485 21.888C117.333 21.888 118.021 21.656 118.549 21.192C119.093 20.712 119.365 20.08 119.365 19.296V19.056H116.317C115.757 19.056 115.317 19.176 114.997 19.416C114.677 19.656 114.517 19.992 114.517 20.424C114.517 20.856 114.685 21.208 115.021 21.48C115.357 21.752 115.845 21.888 116.485 21.888ZM131.902 24.336C130.958 24.336 130.07 24.104 129.238 23.64C128.422 23.16 127.766 22.464 127.27 21.552C126.774 20.64 126.526 19.536 126.526 18.24V17.856C126.526 16.56 126.774 15.456 127.27 14.544C127.766 13.632 128.422 12.944 129.238 12.48C130.054 12 130.942 11.76 131.902 11.76C132.622 11.76 133.222 11.848 133.702 12.024C134.198 12.184 134.598 12.392 134.902 12.648C135.206 12.904 135.438 13.176 135.598 13.464H136.03V7.2H139.054V24H136.078V22.56H135.646C135.374 23.008 134.95 23.416 134.374 23.784C133.814 24.152 132.99 24.336 131.902 24.336ZM132.814 21.696C133.742 21.696 134.518 21.4 135.142 20.808C135.766 20.2 136.078 19.32 136.078 18.168V17.928C136.078 16.776 135.766 15.904 135.142 15.312C134.534 14.704 133.758 14.4 132.814 14.4C131.886 14.4 131.11 14.704 130.486 15.312C129.862 15.904 129.55 16.776 129.55 17.928V18.168C129.55 19.32 129.862 20.2 130.486 20.808C131.11 21.4 131.886 21.696 132.814 21.696ZM149.031 24.336C147.847 24.336 146.799 24.088 145.887 23.592C144.991 23.08 144.287 22.368 143.775 21.456C143.279 20.528 143.031 19.44 143.031 18.192V17.904C143.031 16.656 143.279 15.576 143.775 14.664C144.271 13.736 144.967 13.024 145.863 12.528C146.759 12.016 147.799 11.76 148.983 11.76C150.151 11.76 151.167 12.024 152.031 12.552C152.895 13.064 153.567 13.784 154.047 14.712C154.527 15.624 154.767 16.688 154.767 17.904V18.936H146.103C146.135 19.752 146.439 20.416 147.015 20.928C147.591 21.44 148.295 21.696 149.127 21.696C149.975 21.696 150.599 21.512 150.999 21.144C151.399 20.776 151.703 20.368 151.911 19.92L154.383 21.216C154.159 21.632 153.831 22.088 153.399 22.584C152.983 23.064 152.423 23.48 151.719 23.832C151.015 24.168 150.119 24.336 149.031 24.336ZM146.127 16.68H151.695C151.631 15.992 151.351 15.44 150.855 15.024C150.375 14.608 149.743 14.4 148.959 14.4C148.143 14.4 147.495 14.608 147.015 15.024C146.535 15.44 146.239 15.992 146.127 16.68Z" fill="white"/>
</svg>
